<?xml version="1.0" encoding="UTF-8"?>
<svg width="217px" height="389px" viewBox="0 0 217 389" version="1.1" xmlns="http://www.w3.org/2000/svg" xmlns:xlink="http://www.w3.org/1999/xlink">
    <title>amphora</title>
    <defs>
        <path d="M205.1111,279.74 L144.4231,389.003 L107.6301,389.003 L88.0771,381.008 L28.3591,302.178 L0.7591,211.977 C2.6841,200.627 5.7541,187.339 9.9661,172.116 C10.1731,171.373 10.3821,170.64 10.5961,169.916 C10.7131,169.526 10.8281,169.14 10.9461,168.756 C11.0691,168.353 11.1941,167.953 11.3211,167.556 C11.5361,166.883 11.7561,166.218 11.9791,165.559 L12.3171,164.578 C12.5581,163.886 12.8051,163.201 13.0571,162.526 L13.4401,161.521 L13.7091,160.83 L13.9461,160.23 L13.9821,160.146 L14.1091,159.833 L14.2361,159.523 L14.2361,159.517 L14.3901,159.146 L14.5351,158.802 L14.5491,158.772 L14.8131,158.156 L14.6821,158.456 L14.8291,158.113 L14.9831,157.763 C15.0381,157.634 15.0951,157.503 15.1531,157.374 L15.1531,157.375 C15.4421,156.723 15.7351,156.082 16.0321,155.451 L16.3631,154.76 L16.6791,154.113 L16.8391,153.797 L16.8511,153.77 L16.9291,153.615 L17.0071,153.46 L17.1741,153.136 L17.1781,153.126 L17.3431,152.805 L17.6571,152.207 L17.9261,151.705 L18.1211,151.349 C18.2941,151.034 18.4671,150.723 18.6431,150.414 C18.8821,149.995 19.1211,149.582 19.3641,149.175 L19.2291,149.405 L19.3871,149.136 L19.5451,148.875 L19.5481,148.87 L19.7261,148.573 L19.8881,148.311 L19.9081,148.28 L20.0531,148.045 C20.2441,147.74 20.4361,147.436 20.6311,147.136 C21.0391,146.505 21.4551,145.886 21.8801,145.282 C22.1261,144.932 22.3731,144.585 22.6251,144.243 C23.1901,143.473 23.7661,142.728 24.3561,142.006 L24.6321,141.671 L25.0271,141.2 C25.3421,140.828 25.6621,140.463 25.9861,140.104 L26.2901,139.769 C26.9651,139.034 27.6531,138.327 28.3591,137.648 L50.6311,125.063 C62.5141,120.524 69.6821,110.969 72.1351,96.395 C78.9451,55.931 74.2451,24.865 58.0361,3.198 C57.3761,2.314 57.5551,1.061 58.4411,0.399 C58.8001,0.13 59.2411,-0.01 59.6921,-0.000500780516 L104.3041,1.181 L141.5021,3.733 C142.6031,3.808 143.4351,4.763 143.3601,5.865 C143.3431,6.099 143.2871,6.329 143.1901,6.544 C134.4151,26.201 132.6301,54.407 137.8381,91.157 C140.3031,108.573 149.6041,129.747 163.7521,134.307 C201.2301,146.388 206.8361,167.308 211.3481,176.094 C214.3581,181.952 216.1631,193.913 216.7591,211.977 L205.1111,279.74 Z" id="path-1"></path>
    </defs>
    <g id="Production" stroke="none" stroke-width="1" fill="none" fill-rule="evenodd">
        <g id="amphora">
            <mask id="mask-2" fill="white">
                <use xlink:href="#path-1"></use>
            </mask>
            <use id="Mask" fill="#FF9B75" xlink:href="#path-1"></use>
            <path d="M41.1692,98.1452 C47.3152,111.6072 53.9932,125.3982 61.2042,139.5192 C86.9282,189.8982 149.2522,268.1122 241.1492,257.0352 C245.2742,256.5372 251.2552,255.9952 259.0922,255.4062 L218.0852,433.5582 L-37.3768,411.3802 L-100.9998,93.3642 C-24.1708,57.2332 23.2182,58.8272 41.1692,98.1452" id="Fill-4" fill="#765D5D" mask="url(#mask-2)"></path>
        </g>
    </g>
</svg>