<?xml version="1.0" encoding="UTF-8"?>
<svg width="300px" height="327px" viewBox="0 0 300 327" version="1.1" xmlns="http://www.w3.org/2000/svg" xmlns:xlink="http://www.w3.org/1999/xlink">
    <title>hola</title>
    <defs>
        <path d="M0,155.7 L0,151 L0,151 C0,67.6 67.2,0 150,0 C232.8,0 300,67.6 300,150.9 L300,155.6 C300,166.6 291,175.601637 280,175.601637 L20,175.601637 C9,175.7 0,166.7 0,155.7 Z" id="path-1"></path>
        <path d="M190.009356,-1.17471805 C194.109356,-1.17471805 197.409356,1.82528195 197.909356,5.72528195 C195.309356,39.3252819 175.509356,70.7252819 143.009356,86.7252819 C94.009356,110.825282 34.709356,90.7252819 10.609356,41.8252819 C4.809356,30.2252819 1.609356,17.9252819 0.709356004,5.72528195 C1.209356,1.82528195 4.609356,-1.17471805 8.609356,-1.17471805 L190.009356,-1.17471805 Z" id="path-3"></path>
    </defs>
    <g id="Production" stroke="none" stroke-width="1" fill="none" fill-rule="evenodd">
        <g id="hola">
            <g id="skirt-2" transform="translate(0.000000, 150.500000)">
                <g id="Mask" fill="#0091FF" fill-rule="nonzero">
                    <path d="M0,155.7 L0,151 L0,151 C0,67.6 67.2,0 150,0 C232.8,0 300,67.6 300,150.9 L300,155.6 C300,166.6 291,175.601637 280,175.601637 L20,175.601637 C9,175.7 0,166.7 0,155.7 Z" id="path-1"></path>
                </g>
                <g id="Group-71-Clipped">
                    <mask id="mask-2" fill="white">
                        <use xlink:href="#path-1"></use>
                    </mask>
                    <g id="path-1"></g>
                    <g id="Group-71" mask="url(#mask-2)">
                        <g transform="translate(45.000000, -202.000000)" id="Path">
                            <g>
                                <path d="M36.194488,198.501575 L289.294488,396.901575 L289.294488,397.201575 L203.394488,552.301575 L151.294488,552.301575 L123.594488,541.001575 L39.194488,428.901575 L0.094488,300.901575 C2.794488,284.801575 7.194488,265.901575 13.094488,244.301575 C13.894488,241.601575 14.594488,238.901575 15.494488,236.401575 C15.794488,235.401575 16.194488,234.301575 16.494488,233.301575 C16.594488,232.901575 16.794488,232.501575 16.894488,232.001575 C16.994488,231.701575 17.094488,231.401575 17.194488,231.101575 C17.394488,230.501575 17.594488,230.001575 17.794488,229.401575 C17.994488,229.001575 18.094488,228.601575 18.294488,228.101575 C18.494488,227.501575 18.694488,227.001575 18.994488,226.401575 L18.994488,226.401575 C19.194488,225.801575 19.494488,225.301575 19.694488,224.701575 L19.694488,224.701575 C19.894488,224.301575 20.094488,223.901575 20.194488,223.401575 C20.394488,223.001575 20.494488,222.701575 20.694488,222.301575 C20.994488,221.701575 21.194488,221.201575 21.494488,220.601575 L21.294488,221.101575 C21.394488,220.801575 21.494488,220.601575 21.694488,220.301575 L21.494488,220.601575 C21.594488,220.301575 21.794488,220.101575 21.894488,219.801575 L21.694488,220.301575 C21.794488,220.101575 21.894488,219.801575 21.994488,219.601575 L21.894488,219.801575 C21.994488,219.601575 22.094488,219.301575 22.194488,219.101575 L21.994488,219.601575 C22.094488,219.301575 22.294488,219.001575 22.394488,218.701575 L22.394488,218.701575 C22.794488,218.001575 23.094488,217.201575 23.494488,216.501575 L23.394488,216.801575 C23.494488,216.601575 23.594488,216.401575 23.694488,216.101575 L23.494488,216.501575 C23.594488,216.201575 23.794488,216.001575 23.894488,215.701575 L23.694488,216.101575 C23.794488,215.901575 23.894488,215.601575 24.094488,215.401575 L23.894488,215.701575 C23.994488,215.401575 24.194488,215.201575 24.294488,214.901575 L24.094488,215.401575 C24.194488,215.201575 24.394488,214.901575 24.494488,214.701575 L24.394488,215.001575 C24.494488,214.801575 24.594488,214.601575 24.794488,214.301575 L24.594488,214.701575 C24.694488,214.501575 24.794488,214.301575 24.994488,214.001575 L24.894488,214.301575 C24.994488,214.101575 25.194488,213.801575 25.294488,213.601575 L24.994488,214.101575 C25.194488,213.801575 25.394488,213.401575 25.594488,213.101575 L25.294488,213.601575 C25.394488,213.401575 25.494488,213.201575 25.594488,213.001575 L25.494488,213.101575 C25.594488,212.901575 25.794488,212.701575 25.894488,212.401575 L25.594488,213.001575 C25.694488,212.801575 25.894488,212.501575 25.994488,212.301575 L25.894488,212.401575 C25.994488,212.201575 26.194488,212.001575 26.294488,211.701575 L25.994488,212.201575 C26.094488,212.001575 26.294488,211.701575 26.394488,211.501575 L26.294488,211.701575 C26.394488,211.501575 26.494488,211.401575 26.594488,211.201575 L26.594488,211.201575 C26.994488,210.501575 27.494488,209.701575 27.894488,209.001575 L27.594488,209.501575 C27.694488,209.301575 27.894488,209.101575 27.994488,208.801575 L27.894488,209.001575 C27.994488,208.801575 28.194488,208.601575 28.294488,208.301575 L27.994488,208.801575 C28.094488,208.601575 28.294488,208.301575 28.394488,208.101575 L28.294488,208.301575 C28.394488,208.101575 28.594488,207.901575 28.694488,207.701575 L28.494488,208.101575 C28.594488,207.901575 28.794488,207.701575 28.894488,207.501575 L28.694488,207.801575 C28.794488,207.601575 28.994488,207.401575 29.094488,207.201575 L28.894488,207.601575 C28.994488,207.401575 29.194488,207.201575 29.294488,206.901575 L29.094488,207.201575 C29.194488,207.001575 29.394488,206.801575 29.494488,206.601575 L29.494488,206.601575 C29.794488,206.201575 30.094488,205.701575 30.394488,205.301575 L30.394488,205.301575 C31.194488,204.201575 31.994488,203.101575 32.894488,202.001575 L33.294488,201.501575 C33.494488,201.201575 33.694488,201.001575 33.894488,200.701575 C34.594488,199.901575 35.294488,199.001575 35.994488,198.301575 L36.194488,198.501575 L36.194488,198.501575 Z" fill="#DFE3E8" fill-rule="nonzero"></path>
                                <path d="M289.294488,396.801575 L36.194488,198.501575 C37.194488,197.501575 38.094488,196.501575 39.094488,195.501575 L70.594488,177.601575 C87.394488,171.201575 97.594488,157.601575 100.994488,136.901575 C110.794488,78.601575 103.794488,34.101575 79.994488,3.301575 C79.294488,2.401575 79.494488,1.201575 80.394488,0.501575 C80.794488,0.201575 81.194488,0.101575 81.694488,0.101575 L146.594488,1.801575 L200.394488,5.501575 C201.494488,5.601575 202.294488,6.501575 202.294488,7.601575 C202.294488,7.801575 202.194488,8.101575 202.094488,8.301575 C189.294488,36.201575 186.594488,76.601575 193.994488,129.501575 C197.494488,154.201575 210.694488,184.301575 230.694488,190.701575 C283.694488,207.801575 291.694488,237.501575 297.994488,250.001575 C302.294488,258.301575 304.794488,275.301575 305.694488,300.901575 L289.194488,397.101575 L289.294488,396.801575 Z" fill="#003135" fill-rule="nonzero"></path>
                            </g>
                        </g>
                    </g>
                </g>
            </g>
            <g id="Group-70" transform="translate(139.107368, 101.236414) rotate(15.000000) translate(-139.107368, -101.236414) translate(40.107368, 51.736414)">
                <mask id="mask-4" fill="white">
                    <use xlink:href="#path-3"></use>
                </mask>
                <use id="Mask" fill="#FF9B75" xlink:href="#path-3"></use>
                <g id="Path-13-2" mask="url(#mask-4)" fill="#FDF2E7">
                    <g transform="translate(67.667706, -163.690188)" id="Path-13">
                        <path d="M126.74165,0.115470054 L72.5416495,16.2154701 L72.5416495,16.2154701 L27.9416495,31.4154701 C26.9416495,31.8154701 26.3416495,32.9154701 26.7416495,33.9154701 C26.8416495,34.1154701 26.9416495,34.3154701 27.0416495,34.5154701 C44.1416495,55.3154701 55.5416495,88.8154701 61.1416495,135.01547 C63.7416495,156.71547 59.4416495,185.21547 43.8416495,195.21547 C2.74164952,221.91547 2.74164952,248.91547 0.141649525,260.91547 C-1.55835048,268.91547 12.0416495,309.81547 41.0416495,383.51547 L149.24165,495.31547 L193.44165,483.41547 L214.34165,467.51547 L260.74165,353.51547 L264.94165,236.21547 C258.94165,223.21547 251.04165,208.21547 241.04165,191.31547 C231.04165,174.41547 219.94165,162.41547 207.84165,155.71547 L177.04165,147.71547 C161.24165,146.11547 149.64165,136.91547 141.94165,120.21547 C120.54165,73.3154701 116.24165,34.1154701 129.24165,2.71547005 C129.64165,1.71547005 129.14165,0.515470054 128.14165,0.115470054 C127.74165,0.0154700538 127.24165,-0.0845299462 126.74165,0.115470054 Z"></path>
                    </g>
                </g>
            </g>
            <path d="M150.3,34 C140.9,34 133.3,26.4 133.3,17 C133.3,7.6 140.9,0 150.3,0 C159.7,0 167.3,7.6 167.3,17 C167.3,26.4 159.7,34 150.3,34 Z" id="Fill-5" fill="#FF9B75"></path>
        </g>
    </g>
</svg>