<?xml version="1.0" encoding="UTF-8"?>
<svg width="1160px" height="511px" viewBox="0 0 1160 511" version="1.1" xmlns="http://www.w3.org/2000/svg" xmlns:xlink="http://www.w3.org/1999/xlink">
    <!-- Generator: Sketch 64 (93537) - https://sketch.com -->
    <title>Path 12</title>
    <desc>Created with Sketch.</desc>
    <defs>
        <path d="M9.48529051,27.4626514 L14.7619048,21.0854294 C20.5747315,14.0601506 28.8432181,9.51025586 37.8886189,8.35950742 L87.7724698,2.01332497 C93.3737774,1.30073123 99.0266093,1.07858191 104.666564,1.3494079 L193.786764,5.62888664 C194.690936,5.67230422 195.595671,5.70306295 196.500704,5.72115378 L415.376745,10.096298 C417.188718,10.1325177 419.00135,10.1179484 420.812506,10.0526072 L670.085705,1.05955809 C672.250183,0.981470021 674.41667,0.975898935 676.581522,1.0428542 L825.467691,5.6476562 C826.466931,5.67856103 827.466589,5.69401621 828.466307,5.69401621 L1039.43515,5.69401621 C1040.77081,5.69401621 1042.10633,5.66642879 1043.44085,5.6112716 L1122.52958,2.34244746 C1141.3018,1.56657077 1157.20535,16.0359005 1158.20185,34.7977076 L1159.73976,63.7533383 C1159.91314,67.0177073 1159.9214,70.2887541 1159.76449,73.5539564 L1156.51895,141.092512 C1156.44212,142.691331 1156.40369,144.291763 1156.40369,145.892427 L1156.40369,285.991985 C1156.40369,286.779964 1156.41301,287.567915 1156.43163,288.355674 L1159.97206,438.097943 C1159.99069,438.885702 1160,439.673653 1160,440.461632 L1160,475.639811 C1160,495.720989 1143.72099,512 1123.63981,512 L1052.89994,512 C1052.3439,512 1051.78786,511.995219 1051.2319,511.985657 L693.681814,505.836191 C692.370001,505.81363 691.057866,505.817685 689.746217,505.848356 L428.31345,511.961493 C427.215673,511.987162 426.117541,511.994189 425.019526,511.98257 L179.009127,509.37935 C178.172043,509.370492 177.33488,509.372471 176.497848,509.385286 L46.0968149,511.381739 C23.4407377,511.728606 4.46010459,494.315889 2.85714286,471.713927 L0.250547166,434.960601 C0.0835680663,432.606175 -2.994303e-11,430.246575 -3.1491254e-11,427.886235 L-3.1491254e-11,300.773258 C1.9568301e-11,300.397996 0.00211231718,300.022738 0.00633685105,299.6475 L1.90606558,130.907051 C1.9186052,129.793239 1.91253411,128.679295 1.88785484,127.565686 L0.131061953,48.2934407 C0.045217204,44.4198446 0.985732388,40.5924885 2.85714286,37.1998585 C4.7577287,33.7543372 6.97679909,30.4943694 9.48529051,27.4626514 Z" id="path-1"></path>
    </defs>
    <g id="Production" stroke="none" stroke-width="1" fill="none" fill-rule="evenodd">
        <g id="1-—-Головна-Copy-5-(2)-Copy-6" transform="translate(-140.000000, -772.000000)">
            <g id="Group-35" transform="translate(140.000000, 771.000000)">
                <g id="Group-25">
                    <mask id="mask-2" fill="white">
                        <use xlink:href="#path-1"></use>
                    </mask>
                    <use id="Path-12" fill="#D8D8D8" xlink:href="#path-1"></use>
                </g>
            </g>
        </g>
    </g>
</svg>