<?xml version="1.0" encoding="UTF-8"?>
<svg width="99px" height="98px" viewBox="0 0 99 98" version="1.1" xmlns="http://www.w3.org/2000/svg" xmlns:xlink="http://www.w3.org/1999/xlink">
    <title>kolo</title>
    <defs>
        <path d="M48.8239678,97.6130482 L48.8047362,97.614371 C40.9545074,97.5522127 33.5457254,95.6367713 26.9943833,92.2840398 C26.9916468,92.2825019 26.9913117,92.2821931 26.9909766,92.2818842 C24.8974022,91.2106387 22.8919593,89.9925882 20.9876132,88.6414032 C17.3323356,86.047885 12.795394,81.1619085 7.37678841,73.9834739 C3.58786111,65.323955 1.34027715,58.1548669 0.634036521,52.4762095 C0.472060632,51.2366968 0.391337924,50.0138983 0.391337924,48.8079663 C0.391337924,48.5529904 0.393293088,48.2984711 0.397189243,48.0444227 C0.397884732,47.9990531 0.398648288,47.9533577 0.399474599,47.9076776 C0.403696914,47.6743209 0.409549397,47.4415987 0.41702533,47.2092865 C0.418178998,47.173424 0.419390533,47.1370132 0.420641928,47.1006125 C0.426830928,46.9206277 0.433976776,46.7412801 0.442087831,46.562184 C0.460763889,46.1498339 0.4845465,45.7389591 0.513380227,45.3294784 C0.52206945,45.2060876 0.53119843,45.0830656 0.540782577,44.9601714 C0.548967426,44.8552066 0.557524796,44.7498558 0.566416189,44.6446002 C0.624743212,43.9541645 0.697416596,43.2680273 0.78415387,42.5862809 C0.800806571,42.4553985 0.817939069,42.3249624 0.835585551,42.1946896 C0.848723041,42.0976925 0.862251774,42.0000352 0.876068995,41.9024707 C0.894089626,41.7752402 0.912485278,41.6489397 0.93136364,41.522797 C0.953059437,41.3778161 0.975488096,41.2324447 0.998556716,41.0872865 C1.06355647,40.6783111 1.13352703,40.2716177 1.20849645,39.8666782 C1.33116317,39.2040861 1.46727396,38.545927 1.61648816,37.8927588 L1.6302825,37.8325523 C1.65362807,37.730956 1.67729073,37.6294807 1.70126941,37.5281277 C1.72599565,37.4236151 1.75105025,37.3192639 1.77643946,37.2150438 C1.80480897,37.0985853 1.83369982,36.9818788 1.86300974,36.8653388 C1.89145614,36.752235 1.92022981,36.6395482 1.94939485,36.5270191 C1.97674283,36.4214983 2.00450877,36.3158389 2.03261939,36.2103202 C2.20470362,35.564377 2.38965548,34.9238596 2.5872241,34.2889021 C2.61930392,34.1857996 2.65182033,34.0825173 2.68467023,33.9793839 C2.82199221,33.5482632 2.96507164,33.1199435 3.11388086,32.6943138 C3.14319982,32.6104565 3.17263224,32.5270097 3.20228474,32.4436674 C3.2534997,32.2997145 3.30560024,32.1554483 3.35835946,32.0114997 C3.37926473,31.9544628 3.40016277,31.8977742 3.42116293,31.8411351 C3.66151912,31.1928655 3.91534789,30.5508626 4.18222717,29.915695 C4.23802434,29.7829023 4.29421053,29.6508296 4.35096048,29.5190568 C4.39713573,29.4118358 4.44385721,29.3044195 4.49095304,29.1972049 C4.50956979,29.1548228 4.5283646,29.1122021 4.54721856,29.0696134 C4.73792288,28.6388457 4.93452053,28.2116832 5.13705189,27.7878993 C5.21170517,27.631692 5.28717124,27.4759303 5.36343826,27.3206331 C5.38013368,27.2866358 5.39724974,27.2518871 5.4144059,27.2171617 C5.46633674,27.1120514 5.51848381,27.0074555 5.57099447,26.9030738 C5.63399336,26.7778432 5.69753407,26.6528852 5.76159553,26.5282387 C5.79374747,26.4656795 5.82605414,26.4031534 5.85849182,26.3407063 C6.18169653,25.7184921 6.51789367,25.1041406 6.86673545,24.497988 C6.91286026,24.4178393 6.9594129,24.3374794 7.00618774,24.2572649 C7.3393352,23.6859542 7.68363391,23.1222103 8.03889187,22.5661451 C8.07807451,22.5048156 8.11720451,22.4438678 8.15646617,22.3830129 C8.52865439,21.8061223 8.91279382,21.2374132 9.30842829,20.6774037 C9.36036936,20.6038825 9.41251937,20.5304961 9.46486682,20.4572605 C9.72681936,20.090785 9.99357634,19.7282694 10.2651748,19.369623 C10.28547,19.3428236 10.3055569,19.3163552 10.3256702,19.2899079 L10.2651748,19.369623 C10.4020551,19.1888723 10.540165,19.0091044 10.6794923,18.8303317 C10.7159074,18.7836076 10.7522061,18.7372056 10.7885869,18.6908711 C10.8802353,18.574147 10.972492,18.4577413 11.0652669,18.341768 C11.1360803,18.2532473 11.2072351,18.1649299 11.2786904,18.0768663 C11.545518,17.7480202 11.8165404,17.4227089 12.091673,17.1010179 C12.169636,17.0098623 12.2478421,16.9190976 12.3263757,16.8286247 C12.3899633,16.7553693 12.4539383,16.6821085 12.5181283,16.6090411 C12.5926692,16.5241908 12.6675593,16.4395345 12.7427381,16.355141 C13.1585328,15.8883885 13.5829211,15.429918 14.0158672,14.9797375 L13.6208646,15.3952921 C13.6614706,15.3520708 13.7021545,15.3089236 13.7429161,15.2658506 L14.0158672,14.9797375 C14.0336166,14.9612816 14.0516221,14.9427313 14.0698836,14.9240867 C22.9473395,5.72244575 35.4050475,-3.63797881e-12 49.1993042,-3.63797881e-12 L49.1993042,-3.63797881e-12 L49.8320882,0.00401795695 C49.8521145,0.00427240556 49.8721378,0.00453891512 49.8921582,0.00481747871 C50.0058431,0.00639834809 50.1198437,0.00837641589 50.2337484,0.0107446916 C50.3753355,0.0136898814 50.5163019,0.0172241189 50.6571186,0.0213548124 C50.7514177,0.0241200811 50.8461123,0.0271690459 50.9407383,0.0304873777 C51.1266075,0.0370065196 51.3119182,0.0445513167 51.4969599,0.0531265055 C51.5438654,0.0553004333 51.5905085,0.0575285048 51.6371343,0.0598220037 C51.8805178,0.0717922949 52.1237567,0.0855660991 52.3665128,0.101114579 C52.4638169,0.10734698 52.5609946,0.113861095 52.658094,0.120659227 C52.7882289,0.12977013 52.9182674,0.139394635 53.0481632,0.149527649 C53.1602132,0.158269129 53.2718984,0.167367042 53.3834766,0.176840324 C53.5422151,0.190316085 53.7012103,0.204596421 53.859984,0.219637362 C53.9293223,0.226205932 53.9986063,0.232918371 54.0678478,0.239775513 C54.2600198,0.258807322 54.4517217,0.278937934 54.6430898,0.300174967 C54.7000953,0.30650154 54.7567349,0.312887776 54.8133451,0.319370865 C55.0359198,0.344858269 55.2585146,0.371903893 55.4806419,0.400442725 C55.5871894,0.414133458 55.692932,0.428073483 55.7985673,0.442351454 C55.9298599,0.460095789 56.0615408,0.478441662 56.1930524,0.49731182 C56.2855412,0.510583527 56.3775362,0.524053291 56.4694474,0.537779315 C56.6347355,0.562462042 56.8001536,0.588037594 56.9652951,0.614441543 C57.0395266,0.62631054 57.113481,0.638310482 57.1873795,0.65047641 C57.419126,0.688628425 57.6504207,0.728430497 57.8811526,0.769854149 C57.8935593,0.77208155 57.9059119,0.77430418 57.9182628,0.776531458 C58.1570616,0.819594173 58.3953347,0.864409331 58.6329899,0.910949219 C58.6530728,0.914882064 58.6730793,0.918813041 58.6930814,0.922756239 C58.9203662,0.967563124 59.1470532,1.0139412 59.3731619,1.0618848 C59.3976779,1.06708287 59.4226611,1.07240061 59.4476371,1.07773745 C59.6364126,1.11807626 59.8243979,1.15941936 60.0119734,1.20184264 C60.0904028,1.21958087 60.1686797,1.23748924 60.2468847,1.25558556 C60.4522285,1.30310107 60.657135,1.35192683 60.8615359,1.40204008 C60.9411192,1.4215518 61.0205285,1.44123431 61.0998608,1.46111099 C61.2649145,1.50246633 61.4293023,1.54457507 61.5933533,1.58751607 C61.6531919,1.60317824 61.7135609,1.61910412 61.7738841,1.63514262 C61.9758492,1.68884144 62.1770712,1.74373887 62.3777708,1.79988706 C62.3981146,1.80557864 62.4180946,1.81118231 62.4380694,1.81679838 C62.900979,1.94694511 63.361435,2.0838523 63.8189905,2.22731518 C63.9099786,2.25584336 64.0010451,2.28469257 64.0919955,2.31380126 C64.2318999,2.35857859 64.3712472,2.40387663 64.5103178,2.449783 C64.5761496,2.47151281 64.6424773,2.49356572 64.7087415,2.51575693 C64.8573356,2.5655217 65.0050107,2.6157744 65.1523658,2.66671306 C65.247249,2.69951319 65.3418921,2.73255981 65.4364018,2.76588919 C65.6398677,2.83764068 65.8431045,2.91084579 66.0457105,2.98535626 C66.0940294,3.00312625 66.1421372,3.02090542 66.1902092,3.03875816 C66.3710089,3.10590219 66.5513879,3.17411963 66.7312533,3.24337142 C66.766975,3.25712503 66.8026493,3.2709089 66.8383034,3.28473346 C67.0365011,3.36158246 67.2341773,3.43973087 67.4312162,3.51912786 C67.469637,3.53460963 67.507946,3.55010334 67.5462309,3.56564424 C67.7264945,3.63881876 67.9061353,3.71300301 68.0852329,3.7882248 C68.1326131,3.80812446 68.1801653,3.82818569 68.2276789,3.84832004 C68.4436536,3.93984205 68.6586993,4.03281604 68.8729374,4.12728569 C68.9066675,4.14215888 68.9407419,4.15723078 68.9747958,4.17234052 C69.1481418,4.24925535 69.3207156,4.32704013 69.4927524,4.40579533 C69.5638433,4.43833995 69.6345711,4.47092444 69.7052074,4.50367289 C69.8415867,4.56689963 69.9780154,4.63092301 70.1140975,4.69555753 C70.1936558,4.73334618 70.2726012,4.77110562 70.351429,4.80907067 C70.4911762,4.87637429 70.6309068,4.94449844 70.7702618,5.01326814 C70.9456805,5.09983577 71.1203023,5.18732375 71.2943225,5.27582451 C71.3640234,5.31127206 71.4335908,5.34686308 71.5030613,5.38261591 C71.6051894,5.43517545 71.7072594,5.4881639 71.8091177,5.5415015 C71.9455422,5.61293952 72.0815801,5.68500014 72.2172345,5.7576832 C72.2561738,5.77854659 72.295146,5.79949609 72.3340864,5.82049696 C72.5235167,5.92265988 72.7119009,6.02587484 72.8995248,6.13029117 C72.9284606,6.14639448 72.9574123,6.16254537 72.9863458,6.17872486 C73.1898708,6.29253482 73.3925282,6.40777808 73.5942732,6.52442373 C73.6094868,6.5332196 73.6254888,6.54248348 73.6414852,6.55175619 C73.8329161,6.66273012 74.0225888,6.77440869 74.2114346,6.88732713 C74.2469481,6.90856183 74.2826379,6.92996397 74.318298,6.95141039 C74.4929571,7.05645277 74.6668468,7.16252155 74.8400166,7.26964298 C74.8832431,7.2963833 74.9258947,7.3228591 74.9685025,7.34939875 C75.1295844,7.44973058 75.2906357,7.55135659 75.4510477,7.65389476 C75.4886116,7.6779067 75.5258157,7.70175978 75.5629852,7.72566193 C75.9445464,7.97102473 76.3227079,8.22172248 76.6971249,8.4774982 C76.7636153,8.52292067 76.8296365,8.56826082 76.8955402,8.61375888 C77.0359248,8.71067576 77.1759034,8.80839846 77.3153431,8.90683364 C77.3587131,8.93745067 77.4016142,8.96784033 77.4444639,8.99829744 C77.8308135,9.27290298 78.2134869,9.55336435 78.591866,9.83920933 C78.6214708,9.86157436 78.6508427,9.88381557 78.6801886,9.90608923 C78.8318141,10.0211727 78.9828673,10.1372165 79.1332186,10.2541205 C79.1763758,10.2876773 79.2192971,10.3211654 79.2621608,10.3547237 C79.4065515,10.4677679 79.5503103,10.5816245 79.6934094,10.6962703 C79.7453089,10.7378501 79.797185,10.7795849 79.8489737,10.8214234 C80.1972222,11.1027648 80.5413914,11.3886848 80.8815205,11.6791966 C80.9372772,11.7268196 80.9929636,11.7745989 81.0485408,11.8225013 C81.1851336,11.9402316 81.3210933,12.0587286 81.4563871,12.1779634 C81.4950501,12.2120378 81.5333374,12.2458875 81.5715712,12.2797963 C81.8941173,12.5658505 82.2132367,12.8564751 82.5284447,13.1512304 C82.5408094,13.1627927 82.5531715,13.1743795 82.5655311,13.1859907 C90.9355842,21.0294634 96.5395218,31.7878498 97.7576885,43.8414043 C97.7587886,43.8544951 97.7594553,43.8632996 97.7601206,43.8720954 C97.9237662,45.4948031 98.0072705,47.141633 98.0072705,48.8079663 L98.0028412,48.3326033 C98.0057941,48.5006102 98.0072705,48.6590645 98.0072705,48.8079663 C98.0072705,49.0519195 98.0054807,49.2954546 98.0019136,49.5385593 C98.0008948,49.608014 97.9997263,49.6776795 97.998412,49.7473094 C97.99486,49.9354429 97.9902505,50.123083 97.984585,50.3104576 C97.9831909,50.3565687 97.9817262,50.4028662 97.9801971,50.4491473 C97.9726179,50.6785058 97.9634683,50.9072078 97.9527503,51.1354995 C97.9478141,51.2406258 97.9425637,51.3453183 97.936984,51.4499233 C97.9296914,51.5866458 97.9218301,51.7233166 97.9134075,51.8598356 C97.9056845,51.985031 97.8974667,52.1104273 97.8887761,52.2356935 C97.8826763,52.3236209 97.8763336,52.4116174 97.869758,52.4995489 C97.8590607,52.6425754 97.8477893,52.7849257 97.8359084,52.9271027 C97.8197594,53.1203679 97.8024585,53.3135844 97.7840349,53.5064733 C97.776152,53.5890028 97.7680727,53.6713827 97.7597887,53.7537022 C97.7416606,53.9338418 97.7225658,54.1135779 97.7024981,54.2930199 C97.6948814,54.3611263 97.6871285,54.4291567 97.6792359,54.4971446 C97.5978328,55.198392 97.5015244,55.8953663 97.3906648,56.5874807 C97.3799306,56.6544899 97.369171,56.7207784 97.3582781,56.787022 C97.241118,57.4995605 97.108419,58.2074107 96.9606214,58.9097001 C96.9441545,58.9879472 96.9274688,59.0662709 96.9105954,59.1445248 C96.7639612,59.824544 96.6032603,60.4989014 96.4287307,61.1676714 C96.4078651,61.247626 96.3867589,61.3276623 96.3654547,61.4076179 C96.1945298,62.0490931 96.0109476,62.6851105 95.8149245,63.3156479 C95.7833755,63.4171294 95.7515284,63.5183928 95.7193608,63.6195133 C95.5872736,64.0347324 95.4498206,64.4474283 95.3070481,64.8576331 C95.2727229,64.9562511 95.2382344,65.0543196 95.203442,65.1522442 C95.158692,65.2782003 95.1132213,65.4045166 95.0672455,65.5305899 C95.0423233,65.5989292 95.0173882,65.6668307 94.9923067,65.7346611 C94.7497524,66.3906356 94.4934202,67.0401762 94.2237345,67.6827275 C94.1988509,67.7420148 94.1738511,67.8012487 94.1487379,67.8604229 C93.967948,68.2864129 93.7813446,68.7091622 93.588968,69.1287134 C93.5634349,69.1843985 93.5377524,69.2401302 93.5119682,69.2958051 C93.3514007,69.6425076 93.1869695,69.9868345 93.0186508,70.3289039 C92.9524335,70.4634728 92.8857833,70.5973575 92.8185378,70.7308911 C92.763844,70.8394993 92.7088276,70.9477366 92.6534203,71.0557404 C92.5958407,71.1679786 92.5378384,71.279966 92.479416,71.391699 C92.1737665,71.9762575 91.8565818,72.553924 91.5281989,73.1243276 C91.4907926,73.1893053 91.4527961,73.2549535 91.4146512,73.3205047 C91.0729498,73.907687 90.7198375,74.4863258 90.3551861,75.0568774 C90.3196994,75.1124012 90.284213,75.1676784 90.2486182,75.2228793 C89.9984261,75.6108847 89.7427607,75.9952927 89.4818435,76.375817 C89.454288,76.4160043 89.4267021,76.4561072 89.3990579,76.4961669 C89.2974629,76.6433901 89.1950354,76.7900909 89.0918256,76.9361997 C89.0660734,76.9726554 89.0404017,77.0088923 89.0146818,77.0450927 C88.7445506,77.4252996 88.4690951,77.80149 88.1884377,78.1735359 C88.144046,78.2323815 88.0997692,78.2908016 88.0553642,78.3491188 C87.8003213,78.6840735 87.5407315,79.0160232 87.2769792,79.3444878 C87.2348747,79.3969219 87.1929241,79.4489461 87.150869,79.5008823 C86.5675694,80.2212446 85.963888,80.9249855 85.3409479,81.610919 C85.2757225,81.6827391 85.2105168,81.7541129 85.1451024,81.8252918 C85.07193,81.9049137 84.9982318,81.9845759 84.924272,82.0639913 C84.8493309,82.1444586 84.7744909,82.2242807 84.6993862,82.3038504 C84.5613029,82.4501455 84.4220365,82.5958858 84.2818807,82.7407605 L84.2376383,82.7864333 C84.1972483,82.8280752 84.1567846,82.8696454 84.1162476,82.9111436 C84.0039163,83.0261373 83.8911867,83.1404126 83.7778997,83.2541324 C83.7339334,83.2982674 83.6896054,83.3425954 83.6451926,83.3868384 C83.5267134,83.5048634 83.407848,83.6220717 83.2883869,83.7386723 C83.2324642,83.7932561 83.1763747,83.8477416 83.120155,83.9020933 C82.7990517,84.2125281 82.473648,84.5186436 82.1440904,84.8202951 C82.1001024,84.8605588 82.0558179,84.9009451 82.0114589,84.9412509 C81.6951079,85.2286925 81.3751774,85.5118548 81.0515453,85.7908414 C81.0303382,85.809123 81.0090264,85.8274231 80.9876099,85.8457417 C76.3702748,89.812322 71.0034378,92.9300063 65.1284831,94.9574685 L65.1124384,94.9630024 C65.1053911,94.9648102 65.0983455,94.9666172 65.0913015,94.9684232 C60.1104435,96.684809 54.7636116,97.6159326 49.1993042,97.6159326 L49.5946153,97.6126917 C49.4609027,97.6148523 49.3291323,97.6159326 49.1993042,97.6159326 L49.1993042,97.6159326 L48.8239678,97.6130482 L48.8239678,97.6130482 Z" id="path-1"></path>
    </defs>
    <g id="Production" stroke="none" stroke-width="1" fill="none" fill-rule="evenodd">
        <g id="kolo" transform="translate(49.500000, 49.000000) scale(-1, 1) translate(-49.500000, -49.000000) ">
            <mask id="mask-2" fill="white">
                <use xlink:href="#path-1"></use>
            </mask>
            <use id="kolo-fill" fill="#91ABA2" xlink:href="#path-1"></use>
            <path d="M-56.1410429,-78.0068686 L-6.31254148,-76.6817087 L-6.31254148,-76.6817087 L34.9715223,-73.8335313 C35.6917368,-73.7838206 36.2353076,-73.1596904 36.18562,-72.4394743 C36.1746423,-72.2803535 36.1346357,-72.1245854 36.0675773,-71.979868 C26.182678,-50.6474614 24.0933337,-19.7330578 29.7995446,20.763343 C32.4570542,39.62342 43.6840252,71.3579221 74.0445732,77.9054072 C103.8637,84.3361307 114.796677,99.6809161 116.449169,124.700373 C117.550831,141.380012 117,150.35066 114.796677,151.612318 L102.251289,225 L36.892325,343.331856 L-2.73270948,343.331856 L-23.7889171,334.673554 L-88.1043698,249.301452 L-117.826374,151.612318 C-115.754068,139.318701 -112.448918,124.928683 -107.910925,108.442265 C-103.372931,91.9558476 -96.7707458,79.5129203 -88.1043698,71.1134837 L-64.116514,57.4831694 C-51.3186827,52.5678286 -43.5991064,42.21875 -40.9577852,26.4359338 C-33.4766596,-18.2664014 -38.893125,-52.377381 -57.2071815,-75.897005 C-57.6507559,-76.4666194 -57.5485515,-77.2879675 -56.9789216,-77.731522 C-56.7399588,-77.9175955 -56.4437999,-78.0149203 -56.1410429,-78.0068686 Z" id="kolo-layer" fill="#405352" mask="url(#mask-2)"></path>
        </g>
    </g>
</svg>