<?xml version="1.0" encoding="UTF-8"?>
<svg width="209px" height="159px" viewBox="0 0 209 159" version="1.1" xmlns="http://www.w3.org/2000/svg" xmlns:xlink="http://www.w3.org/1999/xlink">
    <title>makitra</title>
    <defs>
        <path d="M159.9,128.8 C153.3,135.8 147.5,142.6 142.6,149 L121.6,158.5 L87.1,158.5 L58.9,147.1 L51.1,136.1 C41.1,126.2 32,114.3 23.9,100.6 C15.8,86.9 9.5,72.4 4.9,57.5 C4.3,51.4 5.7,43.4 8.9,33.5 C13.8,18.5 0,13.4 0,8.8 C0,5.8 2.3,3.7 6.9,2.7 C12.5,2.5 17.8,2.3 22.9,2.2 C57.5,1.1 82.2,0.5 97.1,0.5 L97.6,0.5 C163.2,0.5 197.4,2.7 200,2.7 C205.4,2.8 209,2.6 209,8.8 C209,15 194.4,19.5 194.4,29.2 C194.4,38.9 200.4,41.6 199.2,59.2 C198.4,70.9 192.9,84.7 182.6,100.6 C178.2,106.8 174,112.3 170.1,117.2 C166.5,121.6 163.1,125.5 159.9,128.8 Z" id="path-1"></path>
    </defs>
    <g id="Page-1" stroke="none" stroke-width="1" fill="none" fill-rule="evenodd">
        <g id="makitra">
            <mask id="mask-2" fill="white">
                <use xlink:href="#path-1"></use>
            </mask>
            <use id="Mask" fill="#3E4E57" fill-rule="nonzero" xlink:href="#path-1"></use>
            <path d="M333.6,-191.5 L246.1,-189.2 L246.1,-189.2 L173.9,-184.2 C173.2,-184.2 172.6,-183.5 172.7,-182.8 C172.7,-182.6 172.8,-182.5 172.8,-182.3 C190.3,-145.8 194,-92.5 184.1,-22.5 C179.5,9.7 160.3,64 108.2,75.2 C57,86.2 38.3,112.4 35.4,155.2 C33.5,183.7 34.5,199.1 38.2,201.2 L59.7,326.7 L172,528.9 L240,528.9 L276.1,514.1 L386.5,368.1 L437.5,201.1 C433.9,180.1 428.3,155.5 420.5,127.3 C412.7,99.1 401.4,77.8 386.5,63.5 L345.3,40.2 C323.3,31.8 310.1,14.1 305.6,-12.9 C292.6,-90.3 302.3,-149.1 334.7,-189.4 C335.2,-190 335.1,-190.8 334.5,-191.2 C334.2,-191.4 333.9,-191.5 333.6,-191.5 Z" id="Path-13" fill="#E3F1DF" fill-rule="nonzero" mask="url(#mask-2)"></path>
        </g>
    </g>
</svg>