<?xml version="1.0" encoding="UTF-8"?>
<svg width="1160px" height="510px" viewBox="0 0 1160 510" version="1.1" xmlns="http://www.w3.org/2000/svg" xmlns:xlink="http://www.w3.org/1999/xlink">
    <title>Rectangle Copy 9</title>
    <g id="Production" stroke="none" stroke-width="1" fill="none" fill-rule="evenodd">
        <path d="M50,0 C100.104585,0 150.209169,0 200.313754,0 C353.610031,0 237.804001,3.23927149 506.769771,3.23927149 C775.735542,3.23927149 987.256774,0 1044.83785,0 C1066.55857,0 1088.27928,0 1110,0 C1137.61424,-1.21780805e-14 1160,22.3857625 1160,50 C1160,62.1521635 1160,74.3043269 1160,86.4564904 C1160,168.666677 1157.84564,176.868125 1157.84564,251.026452 C1157.84564,325.184779 1160,343.790277 1160,399.193518 C1160,419.462345 1160,439.731173 1160,460 C1160,487.614237 1137.61424,510 1110,510 L1004.99622,510 L1004.99622,510 C824.568428,510 891.038708,507.336637 643.993952,507.336637 C396.949196,507.336637 225.07668,510 150.05112,510 C116.700747,510 83.3503734,510 50,510 C22.3857625,510 4.01713235e-14,487.614237 0,460 C0,449.482354 0,438.964708 0,428.447063 C0,355.462869 3.50268735,372.79294 3.50268735,280.575939 C3.50268735,188.358937 0,147.067007 0,98.0446717 C0,82.0297811 0,66.0148906 0,50 C-3.38176876e-15,22.3857625 22.3857625,-2.03277422e-15 50,0 Z" id="Rectangle-Copy-9" fill="#0091FF"></path>
    </g>
</svg>