<?xml version="1.0" encoding="UTF-8"?>
<svg width="1160px" height="510px" viewBox="0 0 1160 510" version="1.1" xmlns="http://www.w3.org/2000/svg" xmlns:xlink="http://www.w3.org/1999/xlink">
    <title>Rectangle</title>
    <g id="Production" stroke="none" stroke-width="1" fill="none" fill-rule="evenodd">
        <path d="M37.7116317,6.46780854 L150.581849,0 L150.581849,0 L427.791724,4.58525014 L996.494661,0 L1120,0 C1142.09139,-1.21784698e-13 1160,17.90861 1160,40 L1160,101.014504 L1160,101.014504 C1157.35328,169.878003 1156.02992,221.206502 1156.02992,255 C1156.02992,288.793498 1157.35328,336.633734 1160,398.520708 L1160,470 C1160,492.09139 1142.09139,510 1120,510 L996.494661,510 L996.494661,510 L606.844282,507.071359 L150.581849,510 L40,510 C17.90861,510 3.21370588e-14,492.09139 0,470 L0,398.520708 L0,398.520708 L4.12610803,280.38132 L0,117.783533 L0,46.402297 C4.50887649e-15,25.1998502 16.54391,7.68078372 37.7116317,6.46780854 Z" id="Rectangle" fill="#FF9B75"></path>
    </g>
</svg>