<?xml version="1.0" encoding="UTF-8"?>
<svg width="1160px" height="134px" viewBox="0 0 1160 134" version="1.1" xmlns="http://www.w3.org/2000/svg" xmlns:xlink="http://www.w3.org/1999/xlink">
    <title>Combined Shape Copy 3</title>
    <g id="Production" stroke="none" stroke-width="1" fill="none" fill-rule="evenodd">
        <path d="M426.786148,133.998183 C426.497618,133.999956 426.209081,134.000441 425.920546,133.999639 L178.194663,133.311091 C177.975038,133.31048 177.755413,133.310616 177.535789,133.311497 L16.7045433,133.956925 C10.2517158,133.982821 4.58815991,129.665995 2.90281206,123.43709 C1.00566995,116.425411 0.0445892638,109.19354 0.0445892638,101.929741 L0.0445892638,79.157084 C0.044589363,78.6997856 0.0477261901,78.2424926 0.0539996229,77.7852372 C0.357953586,55.6307681 0.359986387,38.0788305 0.0600980266,25.1294246 L0.0445892638,24.4749467 L0.0445892638,24.4749467 C-0.262914296,11.7896166 9.7712967,1.25684386 22.4566268,0.949340302 C22.5430562,0.947245179 22.6294967,0.945637909 22.715944,0.944506341 L95.0330821,0.00813027606 C95.8586093,-0.00255880657 96.6842393,-0.00270798687 97.5097702,0.00768277162 L194.905154,1.2335749 C195.142675,1.23656453 195.380207,1.23868166 195.617744,1.23992624 L417.585328,2.40293467 C418.060342,2.40542353 418.535367,2.40442305 419.010367,2.39993332 L580,0.878246974 L740.989633,2.39993332 C741.464633,2.40442305 741.939658,2.40542353 742.414672,2.40293467 L742.414672,2.40293467 L964.382256,1.23992624 C964.619793,1.23868165 964.857325,1.23656453 965.094846,1.2335749 L965.094846,1.2335749 L1062.49023,0.00768277161 C1063.31576,-0.00270798689 1064.14139,-0.00255880658 1064.96692,0.00813027606 L1064.96692,0.00813027606 L1136.72047,0.937208935 C1149.60115,1.10399041 1159.95541,11.5931883 1159.95541,24.4749467 C1159.5878,45.6250172 1159.57762,63.2247713 1159.92488,77.2742091 C1159.94523,78.0976996 1159.95541,78.92141 1159.95541,79.745152 L1159.95541,79.745152 L1159.95541,101.929741 C1159.95541,109.19354 1158.99433,116.425411 1157.09719,123.43709 C1155.41184,129.665995 1149.74828,133.982821 1143.29546,133.956925 L1143.29546,133.956925 L982.464211,133.311497 C982.244587,133.310616 982.024962,133.31048 981.805337,133.311091 L981.805337,133.311091 L734.079454,133.999639 C733.790919,134.000441 733.502382,133.999956 733.213852,133.998183 L733.213852,133.998183 L580,133.056778 L426.786148,133.998183 Z" id="Combined-Shape-Copy-3" fill="#0091FF"></path>
    </g>
</svg>