<?xml version="1.0" encoding="UTF-8"?>
<svg width="1162px" height="511px" viewBox="0 0 1162 511" version="1.1" xmlns="http://www.w3.org/2000/svg" xmlns:xlink="http://www.w3.org/1999/xlink">
    <title>path-sm copy</title>
    <g id="Production" stroke="none" stroke-width="1" fill="none" fill-rule="evenodd">
        <path d="M136.928757,0.257872922 C202.806034,0.515745845 348.473319,4.99966277 493.951386,4.99966277 C639.429453,4.99966277 637.902249,4.99966277 766.688457,4.99966277 C895.474664,4.99966277 1049.8599,0.773618767 1085.69148,0.257872922 C1093.97532,0.138638498 1102.26113,0.0607524867 1110.5489,0.0242148872 L1110.5489,0.0242147213 C1137.72978,-0.0956152728 1160.02758,21.5204112 1160.75159,48.6919116 C1160.9172,54.9070085 1161,61.2858307 1161,67.8283782 C1161,105.169093 1158.67695,194.564221 1158.67695,274.287724 C1158.67695,354.011227 1160.64279,401.403534 1161,437.687986 C1161.07122,444.922723 1161.12115,452.157488 1161.14977,459.392283 L1161.14976,459.392283 C1161.259,487.006304 1138.96197,509.480446 1111.34795,509.589684 C1111.06076,509.59082 1110.77357,509.589481 1110.4864,509.585669 C1071.76659,509.071614 1022.49409,508.41952 962.668912,507.629386 C827.691711,505.846692 825.199912,505.076545 692.353066,505.728594 C559.506219,506.380643 551.273481,509.398986 427.147687,510.257873 C303.021893,511.11676 264.788983,507.629386 178.753449,507.629386 C136.886094,507.629386 95.0244045,508.09622 53.1683819,509.029888 L53.1683819,509.029888 C26.0083951,509.635737 3.33411275,488.444196 2.1045629,461.305292 C1.68433522,452.029931 1.31614758,441.545656 1,429.852468 C-0.769857741,364.391648 0.720889808,372.496544 1,298.906522 C1.27911019,225.316499 3.10973445,215.419383 2.05486723,151.726821 C1.55916788,121.796645 1.23817146,88.6631188 1.09187794,52.3262421 L1.09187875,52.3262421 C0.984023291,25.5367382 22.0096651,3.42240059 48.770508,2.17884064 C78.7544432,0.78550557 108.140526,0.145182998 136.928757,0.257872922 Z" id="path-sm-copy" fill="#FF7777"></path>
    </g>
</svg>