<?xml version="1.0" encoding="UTF-8"?>
<svg width="1160px" height="134px" viewBox="0 0 1160 134" version="1.1" xmlns="http://www.w3.org/2000/svg" xmlns:xlink="http://www.w3.org/1999/xlink">
    <title>path-sm</title>
    <defs>
        <path d="M27.4412913,1.2303524 L94.7121066,0.0264572667 C95.6976291,0.00882011339 96.6833631,0.00620578864 97.6689653,0.0186152034 L194.786693,1.24139478 C195.024289,1.24438627 195.261895,1.24650473 195.499506,1.24775009 L417.38227,2.41067762 C417.857576,2.41316878 418.332893,2.41216633 418.808184,2.40767033 L672.48128,0.00805996796 C673.049304,0.00268675964 673.617366,0.00230334605 674.185397,0.00690977157 L826.573351,1.24269268 C826.835543,1.24481891 827.097742,1.24588204 827.359943,1.24588204 L1040.91327,1.24588204 C1041.26366,1.24588204 1041.61404,1.24398353 1041.96441,1.2401866 L1142.20826,0.153836858 C1151.92846,0.0485096378 1159.89363,7.84289135 1159.99897,17.5630869 C1159.99966,17.626662 1160,17.6902403 1160,17.753819 C1160,17.753819 1160,17.753819 1160,17.753819 C1160,27.5649087 1157.67695,51.0530404 1157.67695,72 C1157.67695,84.5355759 1158.30093,97.3501476 1159.54887,110.443715 C1159.84945,113.597449 1160,116.763685 1160,119.93171 L1160,124.466309 C1160,129.651813 1155.79632,133.855495 1150.61081,133.855495 C1150.56301,133.855495 1150.51522,133.85513 1150.46742,133.8544 L963.994365,131.006217 C963.335688,130.996156 962.676926,130.992806 962.01818,130.996166 L691.763273,132.374715 C691.730353,132.374883 691.697432,132.375067 691.664512,132.375269 L426.579302,133.997359 C426.29156,133.99912 426.003811,133.9996 425.716065,133.9988 L178.082989,133.310294 C177.863296,133.309683 177.643602,133.309819 177.42391,133.310701 L16.6568465,133.956073 C10.2046886,133.981974 4.54182502,129.665328 2.85714286,123.436937 C0.96071257,116.425697 8.89484217e-16,109.194415 0,101.931225 L0,82.9705561 C-4.3849511e-08,80.1480226 0.119500365,77.3267545 0.358180162,74.5143307 C1.46180772,61.5100111 1.69403674,49.9378087 1.05486723,39.7977235 C0.575936909,32.1997483 0.260089379,23.8160905 0.107324634,14.6467504 C-0.0139668439,7.36793335 5.78837347,1.36897892 13.0671909,1.24771101 C13.1403762,1.24649172 13.2135704,1.24588204 13.2867658,1.24588204 L25.7056332,1.24588204 C26.2842206,1.24588204 26.8627965,1.24070528 27.4412913,1.2303524 Z" id="path-1"></path>
    </defs>
    <g id="Production" stroke="none" stroke-width="1" fill="none" fill-rule="evenodd">
        <g id="1-—-Головна-Copy-5-(2)-Copy-10" transform="translate(-140.000000, -657.000000)">
            <g id="top">
                <g id="plashka" transform="translate(140.000000, 657.000000)">
                    <g id="Rectangle-3">
                        <mask id="mask-2" fill="white">
                            <use xlink:href="#path-1"></use>
                        </mask>
                        <use id="path-sm" fill="#D8D8D8" xlink:href="#path-1"></use>
                    </g>
                </g>
            </g>
        </g>
    </g>
</svg>