<?xml version="1.0" encoding="UTF-8"?>
<svg width="1161px" height="511px" viewBox="0 0 1161 511" version="1.1" xmlns="http://www.w3.org/2000/svg" xmlns:xlink="http://www.w3.org/1999/xlink">
    <title>Path 12</title>
    <g id="Production" stroke="none" stroke-width="1" fill="none" fill-rule="evenodd">
        <g id="Group-69" transform="translate(0.415681, -2.724680)" fill="#FF5151">
            <path d="M62.5552692,3 C93.3416979,3 121.488576,4.99496011 199.071974,4.99496011 C313.564718,4.99496011 240.88552,7.41185518 368.642212,6.14237791 C496.398904,4.87290064 594.913368,3 671.806381,3 C748.699395,3 739.377784,6.14237791 857.333602,6.14237791 C935.970814,6.14237791 1004.5135,5.09491861 1062.96165,3 L1062.96165,3 L1111.48248,3 C1138.2798,3 1160.00331,24.7235161 1160.00331,51.5208313 C1160.00331,57.5840972 1160.00331,63.647363 1160.00331,69.7106289 C1160.00331,132.198563 1156.87685,201.738902 1157.80155,277.793719 C1158.72626,353.848537 1160.00331,403.847734 1160.00331,440.337229 C1160.00331,440.337229 1160.00331,440.337229 1160.00331,440.337229 C1160.00331,480.499585 1127.44529,513.057607 1087.28294,513.057607 C1075.54501,513.057607 1063.80709,513.057607 1052.06917,513.057607 C985.481774,513.057607 823.738702,510.423669 691.165819,510.423669 C558.592936,510.423669 551.128703,513.057607 426.66998,513.057607 C302.211257,513.057607 243.847245,512.331507 158.095254,512.331507 C131.191288,512.331507 105.277348,512.385112 80.3534339,512.492321 C36.1668481,512.682419 0.19246337,477.016194 0.00239668302,432.829608 C0.00190324257,432.714893 0.00165652149,432.600177 0.00165652149,432.485462 C0.00165652149,432.485462 0.00165652149,432.485462 0.00165652149,432.485462 C0.00165652149,388.879297 0.00165652149,345.273133 0.00165652149,301.666968 C0.00165652135,301.400969 0.00271785523,301.134971 0.00484049777,300.86898 L1.34737175,132.634844 C1.3571084,131.414733 1.34451346,130.194545 1.30959323,128.974895 C0.437635425,98.5202301 0.00165652149,74.1219386 0.00165652149,55.7800205 C0.00165652149,27.7208893 28.0495109,3 62.5552692,3 Z" id="Path-12"></path>
        </g>
    </g>
</svg>