<?xml version="1.0" encoding="UTF-8"?>
<svg width="262px" height="131px" viewBox="0 0 262 131" version="1.1" xmlns="http://www.w3.org/2000/svg" xmlns:xlink="http://www.w3.org/1999/xlink">
    <title>plate-true-2</title>
    <defs>
        <path d="M256.799993,0.039029 C259.699993,0.039029 261.999993,2.339029 261.999993,5.239029 L261.999993,7.839029 C258.999993,52.939029 232.599993,95.139029 188.999993,116.539029 C123.999993,148.439029 45.299993,121.739029 13.299993,57.039029 C5.399993,41.039029 1.099993,24.339029 -7.00000001e-06,7.639029 L-7.00000001e-06,5.239029 C-7.00000001e-06,2.339029 2.299993,0.039029 5.199993,0.039029 L256.799993,0.039029 Z" id="path-1"></path>
    </defs>
    <g id="Production" stroke="none" stroke-width="1" fill="none" fill-rule="evenodd">
        <g id="plate-true-2">
            <g id="Mask" fill="#91ABA2" fill-rule="nonzero">
                <path d="M256.799993,0.039029 C259.699993,0.039029 261.999993,2.339029 261.999993,5.239029 L261.999993,7.839029 C258.999993,52.939029 232.599993,95.139029 188.999993,116.539029 C123.999993,148.439029 45.299993,121.739029 13.299993,57.039029 C5.399993,41.039029 1.099993,24.339029 -7.00000001e-06,7.639029 L-7.00000001e-06,5.239029 C-7.00000001e-06,2.339029 2.299993,0.039029 5.199993,0.039029 L256.799993,0.039029 Z" id="path-1"></path>
            </g>
            <g id="Combined-Shape-Clipped">
                <mask id="mask-2" fill="white">
                    <use xlink:href="#path-1"></use>
                </mask>
                <g id="path-1"></g>
                <path d="M207.199993,-107.060971 L155.399993,-105.660971 L114.099993,-102.860971 C113.399993,-102.860971 112.799993,-102.160971 112.899993,-101.460971 C112.899993,-101.260971 112.999993,-101.160971 112.999993,-100.960971 C122.899993,-79.660971 124.999993,-48.760971 119.299993,-8.260971 C116.499993,10.639029 105.299993,42.339029 74.999993,48.939029 C45.199993,55.339029 34.199993,70.739029 32.599993,95.739029 C31.499993,112.439029 31.999993,121.439029 34.299993,122.639029 L46.799993,196.039029 L112.199993,314.339029 L82.399993,241.039029 L207.399993,259.839029 L237.199993,220.339029 L266.899993,122.639029 C264.799993,110.339029 261.499993,95.939029 256.999993,79.439029 C252.499993,62.939029 256.699993,39.839029 269.699993,10.239029 L208.399993,-106.360971 C208.099993,-106.760971 207.699993,-107.060971 207.199993,-107.060971 Z" id="Combined-Shape" fill="#FDF2E7" fill-rule="nonzero" mask="url(#mask-2)"></path>
            </g>
        </g>
    </g>
</svg>