<?xml version="1.0" encoding="UTF-8"?>
<svg width="96px" height="106px" viewBox="0 0 96 106" version="1.1" xmlns="http://www.w3.org/2000/svg" xmlns:xlink="http://www.w3.org/1999/xlink">
    <title>Fill 1</title>
    <g id="Symbols" stroke="none" stroke-width="1" fill="none" fill-rule="evenodd">
        <g id="logotype/gradient-main/sm/black" fill="#222222">
            <path d="M26.472,98.65685 C26.472,98.8485655 26.54784,99.0323791 26.682912,99.1679145 C26.817936,99.30345 27.001056,99.3795773 27.192,99.3795773 C28.820832,99.3795773 32.814192,99.3795773 34.972224,99.3795773 C35.35416,99.3795773 35.7204,99.53188 35.990448,99.8029509 C36.260496,100.074022 36.412224,100.441697 36.412224,100.825032 C36.412224,101.930853 36.412224,103.448725 36.412224,104.554545 C36.412224,105.352822 35.767536,106 34.972224,106 C31.838064,106 24.428592,106 21.294528,106 C20.499264,106 19.854576,105.352918 19.854528,104.554642 C19.854336,101.418246 19.853856,94.0185309 19.853664,90.8819909 C19.853664,90.4986082 20.005344,90.1309327 20.275392,89.8598136 C20.54544,89.5887427 20.911728,89.43644 21.293664,89.43644 C22.401216,89.43644 23.924448,89.43644 25.032,89.43644 C25.827312,89.43644 26.472,90.0836182 26.472,90.8818945 C26.472,93.0406327 26.472,97.0272445 26.472,98.65685 Z M43.030992,96.0645236 C41.20872,96.0645236 39.731472,94.58168 39.731472,92.7525055 C39.731472,92.7522164 39.731472,92.7518791 39.731472,92.7515418 C39.731472,90.9223673 41.20872,89.4395236 43.030992,89.4395236 C43.03896,89.4395236 43.046976,89.4395236 43.054992,89.4395236 C44.877264,89.4395236 46.354512,90.9223673 46.354512,92.7515418 C46.354512,92.7518791 46.354512,92.7522164 46.354512,92.7525055 C46.354512,94.58168 44.877264,96.0645236 43.054992,96.0645236 C43.046976,96.0645236 43.03896,96.0645236 43.030992,96.0645236 Z M29.790432,80.9419855 C29.790432,80.1437091 30.435072,79.4965791 31.230336,79.4965309 C34.364592,79.4963382 41.77464,79.4958564 44.90904,79.4956636 C45.290928,79.4956636 45.657264,79.6479182 45.927312,79.9189891 C46.197408,80.19006 46.349088,80.5577355 46.349088,80.9411182 C46.349088,82.0469391 46.349088,83.5647627 46.349088,84.6705355 C46.349088,85.05387 46.197408,85.4215455 45.92736,85.6926164 C45.657312,85.9636873 45.291024,86.11599 44.909088,86.11599 C42.751056,86.11599 38.757696,86.11599 37.128864,86.11599 C36.93792,86.11599 36.7548,86.1921173 36.619776,86.3276527 C36.484752,86.4631882 36.408864,86.64705 36.408912,86.8387173 C36.408912,88.4683227 36.408912,92.4549345 36.408912,94.6136727 C36.408864,95.4119973 35.764176,96.0591273 34.968912,96.0591273 C33.861312,96.0591273 32.338032,96.0591273 31.230432,96.0591273 C30.435168,96.0591273 29.790432,95.4119973 29.790432,94.6136727 C29.790432,91.4773736 29.790432,84.0782364 29.790432,80.9419855 Z M16.555344,78.7760682 C16.555344,78.9677355 16.631184,79.1515973 16.766208,79.2871327 C16.901232,79.4226682 17.084352,79.4987955 17.275344,79.4987955 C18.903648,79.4987955 22.894848,79.4987955 25.052208,79.4987955 C25.434096,79.4987955 25.800384,79.6510982 26.070432,79.9221691 C26.34048,80.19324 26.492208,80.5609155 26.492208,80.94425 C26.492208,82.0500709 26.492208,83.5679427 26.492208,84.6737636 C26.492208,85.0570982 26.34048,85.4247736 26.070432,85.6958445 C25.800384,85.9669155 25.434096,86.1192182 25.052208,86.1192182 C22.894848,86.1192182 18.903648,86.1192182 17.275344,86.1192182 C17.084352,86.1192182 16.901232,86.1953455 16.766208,86.3308809 C16.631184,86.4664164 16.555344,86.6502782 16.555344,86.8419455 C16.555344,88.4710691 16.555344,92.4555127 16.555344,94.6135282 C16.555344,94.9969109 16.403616,95.3645864 16.133568,95.6356573 C15.86352,95.9067282 15.497232,96.0590309 15.115344,96.0590309 C14.007744,96.0590309 12.484464,96.0590309 11.376864,96.0590309 C10.994976,96.0590309 10.628688,95.9067282 10.35864,95.6356573 C10.088592,95.3645864 9.936864,94.9969109 9.936864,94.6135282 C9.936864,92.4555127 9.936864,88.4710691 9.936864,86.8419455 C9.936864,86.6502782 9.861024,86.4664164 9.726,86.3308809 C9.590976,86.1953455 9.407808,86.1192182 9.216864,86.1192182 C7.58856,86.1192182 3.597312,86.1192182 1.44,86.1192182 C1.058112,86.1192182 0.691824,85.9669155 0.421776,85.6958445 C0.151728,85.4247736 0,85.0570982 0,84.6737636 C0,83.5679427 0,82.0500709 0,80.94425 C0,80.5609155 0.151728,80.19324 0.421776,79.9221691 C0.691824,79.6510982 1.058112,79.4987955 1.44,79.4987955 C3.597312,79.4987955 7.58856,79.4987955 9.216864,79.4987955 C9.407808,79.4987955 9.590976,79.4226682 9.726,79.2871327 C9.861024,79.1515973 9.936864,78.9677355 9.936864,78.7760682 C9.936864,77.1469445 9.936864,73.1625009 9.936864,71.0044373 C9.936864,70.6211027 10.088592,70.2534273 10.35864,69.9823564 C10.628688,69.7112855 10.994976,69.5589827 11.376864,69.5589827 C12.484464,69.5589827 14.007744,69.5589827 15.115344,69.5589827 C15.497232,69.5589827 15.86352,69.7112855 16.133568,69.9823564 C16.403616,70.2534273 16.555344,70.6211027 16.555344,71.0044373 C16.555344,73.1625009 16.555344,77.1469445 16.555344,78.7760682 Z M49.6656,67.1162609 C49.81104,65.2139464 50.61072,63.3519118 52.06416,61.8978809 C55.29504,58.6659891 60.54144,58.6659891 63.77232,61.8978809 C66.60912,64.7354045 66.9552,69.12684 64.81056,72.3435064 C64.64208,72.5914018 64.64448,72.9181227 64.8168,73.1634645 C67.032,76.3886109 66.70752,80.8390209 63.8424,83.7046345 C62.15232,85.39519 59.91072,86.2014645 57.69552,86.1233618 L51.09744,86.1233618 C50.30208,86.1233618 49.65744,85.4761836 49.65744,84.6779073 C49.65744,80.4286564 49.65744,68.2738291 49.65744,68.2738291 C49.63584,67.9273536 49.63584,67.5798182 49.65744,67.2333909 L49.65744,67.1162609 L49.6656,67.1162609 Z M60.03744,79.8984155 C61.16832,78.7672509 61.16832,76.93056 60.03744,75.7993955 C58.90656,74.6682309 57.07056,74.6682309 55.93968,75.7993955 C54.8088,76.93056 54.8088,78.7672509 55.93968,79.8984155 C57.07056,81.0295318 58.90656,81.0295318 60.03744,79.8984155 Z M29.071344,59.6221573 C29.469024,59.6221573 29.791344,59.2985682 29.791344,58.89943 C29.791344,57.2751727 29.791344,53.3107727 29.791344,51.1594545 C29.791344,50.7759273 29.943072,50.4083 30.21312,50.1375182 C30.483168,49.8662545 30.849456,49.714 31.231344,49.714 C32.340144,49.714 33.865632,49.714 34.974384,49.714 C35.35632,49.714 35.72256,49.8662545 35.992656,50.1375182 C36.262704,50.4083 36.414432,50.7759273 36.414432,51.1594545 C36.414432,55.7786455 36.414432,70.1493545 36.414432,74.7684973 C36.414432,75.1518318 36.262704,75.5195073 35.992656,75.7905782 C35.72256,76.0616491 35.35632,76.2139518 34.974384,76.2139518 C33.865632,76.2139518 32.340144,76.2139518 31.231344,76.2139518 C30.849456,76.2139518 30.483168,76.0616491 30.21312,75.7905782 C29.943072,75.5195073 29.791344,75.1518318 29.791344,74.7684973 C29.791344,72.6046518 29.791344,68.6031518 29.791344,66.9698845 C29.791344,66.5707464 29.469024,66.2471573 29.071344,66.2471573 C27.444384,66.2471573 23.458464,66.2471573 21.302976,66.2471573 C20.92104,66.2471573 20.5548,66.0948545 20.284752,65.8237836 C20.014656,65.5527127 19.862976,65.1850373 19.862976,64.8017027 C19.862976,63.6946773 19.862976,62.1745891 19.862976,61.0676118 C19.862976,60.6842291 20.014656,60.3166018 20.284752,60.0455309 C20.5548,59.7744118 20.92104,59.6221573 21.302976,59.6221573 C23.458464,59.6221573 27.444384,59.6221573 29.071344,59.6221573 Z M23.162496,76.1901982 C21.340224,76.1901982 19.862976,74.7073545 19.862976,72.87818 C19.862976,72.8778427 19.862976,72.8775055 19.862976,72.8771682 C19.862976,71.0480418 21.340224,69.5651982 23.162496,69.5651982 C23.170464,69.5651982 23.17848,69.5651982 23.186496,69.5651982 C25.008768,69.5651982 26.486016,71.0480418 26.486016,72.8771682 C26.486016,72.8775055 26.486016,72.8778427 26.486016,72.87818 C26.486016,74.7073545 25.008768,76.1901982 23.186496,76.1901982 C23.17848,76.1901982 23.170464,76.1901982 23.162496,76.1901982 Z M59.18832,26.7813818 C59.45904,26.5101182 59.61168,26.1420091 59.61168,25.7575182 C59.61168,24.7765364 59.61168,22.8030091 59.61168,21.4409091 C59.61168,21.0573818 59.76336,20.6897545 60.0336,20.4189727 C60.30336,20.1477091 60.6696,19.9954545 61.05168,19.9954545 C62.16048,19.9954545 63.68592,19.9954545 64.79472,19.9954545 C65.1768,19.9954545 65.54304,20.1477091 65.8128,20.4189727 C66.08304,20.6897545 66.23472,21.0573818 66.23472,21.4409091 C66.23472,26.2807727 66.23472,41.7962818 66.23472,45.0451818 C66.23472,45.4296727 66.08208,45.7982636 65.81136,46.0690455 C64.82544,47.0553273 62.34768,49.5338 60.84,51.0418909 C60.6336,51.2481091 60.32448,51.3093 60.05568,51.1975182 C59.78688,51.0857364 59.61168,50.8221818 59.61168,50.5302 C59.61168,46.3306727 59.61168,35.7287455 59.61168,32.2028 C59.61168,32.0081455 59.49504,31.8327636 59.31552,31.7580818 C59.13648,31.6834 58.93008,31.7238727 58.7928,31.8616727 C58.13568,32.5188727 57.23904,33.4155364 56.71824,33.9368636 C56.44704,34.2081273 56.2944,34.5767182 56.2944,34.9607273 C56.2944,38.0771273 56.2944,52.3905 56.2944,55.5319545 C56.2944,55.8822364 56.0448,56.1814455 55.7016,56.2431182 C53.96928,56.5726818 52.29744,57.2968545 50.8296,58.4138536 C50.61552,58.5821045 50.32416,58.6128927 50.07984,58.4931609 C49.83504,58.3734773 49.68,58.1242809 49.68,57.8511382 C49.67136,54.2247818 49.67136,45.3328273 49.67136,42.1460818 C49.67136,41.9509455 49.55472,41.7755636 49.37568,41.7008818 C49.19664,41.6262 48.99024,41.6671545 48.85296,41.8044727 C48.19632,42.4611909 47.301696,43.3559273 46.781232,43.8767727 C46.510128,44.1480364 46.357728,44.5161455 46.357728,44.9006364 C46.357728,48.6689364 46.357728,69.0881018 46.357728,74.7308673 C46.357728,75.5291918 45.712992,76.1763218 44.917728,76.1763218 C43.807296,76.1763218 42.278688,76.1763218 41.168256,76.1763218 C40.786368,76.1763218 40.42008,76.0240673 40.150032,75.7529482 C39.879984,75.4818773 39.728256,75.11425 39.728256,74.7308673 C39.728256,68.8853527 39.728256,47.0297909 39.728256,41.1843727 C39.728256,40.386 40.372944,39.7389182 41.168256,39.7389182 C42.570816,39.7389182 44.634048,39.7389182 45.639696,39.7389182 C46.020768,39.7389182 46.38624,39.5871455 46.656144,39.3173273 C47.31624,38.6567545 48.58656,37.3862 49.248,36.7246636 C49.5192,36.4534 49.67136,36.0848091 49.67136,35.7008 C49.67136,34.6976545 49.67136,32.6537818 49.67136,31.2589182 C49.67136,30.8753909 49.82304,30.5077636 50.09328,30.2365 C50.36352,29.9657182 50.72976,29.8134636 51.11136,29.8134636 C52.50864,29.8134636 54.56016,29.8134636 55.5624,29.8134636 C55.94304,29.8134636 56.3088,29.6616909 56.57856,29.3918727 C57.2424,28.7279273 58.52304,27.4467727 59.18832,26.7813818 Z M59.95056,69.8197427 L59.96736,69.80312 C61.09824,68.6719555 61.09824,66.8352645 59.96736,65.7041 C58.83648,64.5729355 57,64.5729355 55.8696,65.7041 C54.73872,66.8352645 54.73872,68.6719555 55.8696,69.80312 C55.884,69.8176709 55.8984,69.8320291 55.91328,69.8462427 L55.9152,69.8477364 C56.14368,70.0665782 56.40672,70.2465855 56.69376,70.3804827 L56.69376,70.3809645 C57.3912,70.7059027 58.19184,70.7380882 58.90944,70.4775691 L58.90944,70.4772318 C59.28816,70.3393836 59.63376,70.1240591 59.92416,69.8452309 L59.93712,69.8326073 L59.95056,69.8197427 Z M73.332,56.3197273 C73.1376,56.3197273 72.9624,56.4372909 72.888,56.6179727 C72.81408,56.7981727 72.85536,57.0053545 72.99312,57.1431545 C73.67472,57.82512 74.6472,58.7979591 75.37968,59.5301782 C75.6504,59.8013455 75.80304,60.1696473 75.80304,60.5538009 C75.80304,60.9379545 75.65088,61.3063045 75.37968,61.5775682 C74.1168,62.8417627 71.97888,64.9818064 70.69632,66.2657073 C70.50336,66.4587718 70.21824,66.5257927 69.96,66.4389691 C69.70128,66.3520973 69.51408,66.1262209 69.47568,65.8553909 C69.10224,63.5130318 68.00976,61.2661691 66.20688,59.4626755 C64.84656,58.1020209 63.23424,57.1460455 61.5192,56.5943636 C61.27872,56.5216091 61.09392,56.3269545 61.03344,56.0821909 C60.97248,55.8374273 61.044,55.5786909 61.22208,55.4004182 C62.33664,54.2773 64.11936,52.4945727 64.11936,52.4945727 L64.11936,52.4945727 C64.11936,52.4945727 64.67568,51.9380727 65.2176,51.3955455 C65.77968,50.8332636 66.68928,50.8337455 67.25136,51.3965091 C67.70928,51.8552 68.24256,52.3895364 68.67408,52.8217273 C68.81136,52.9595273 69.01776,53.0004818 69.19728,52.9258 C69.37632,52.8511182 69.49344,52.6757364 69.49344,52.4806 C69.49344,51.3136364 69.49344,49.6860545 69.49344,49.6860545 L69.49728,49.6860545 L69.49728,41.1906364 C69.49728,40.3922636 70.14192,39.7451818 70.93728,39.7451818 C72.04944,39.7451818 73.58112,39.7451818 74.69136,39.7451818 C75.48432,39.7451818 76.128,40.3884091 76.13136,41.1843727 C76.1352,42.0227364 76.13952,43.0287727 76.14192,43.6194818 C76.14288,43.9143545 75.96576,44.1803182 75.6936,44.2916182 C74.78688,44.6746636 72.82896,45.7722455 72.81504,48.0825636 C72.8136,48.3697273 72.81216,48.6983273 72.8112,48.9850091 C72.81024,49.1772545 72.88608,49.3617909 73.02096,49.4981455 C73.15632,49.6340182 73.33968,49.7106273 73.5312,49.7106273 C75.636,49.7106273 81.79344,49.7106273 84.61344,49.7106273 C84.99504,49.7106273 85.36128,49.8628818 85.63152,50.1341455 C85.90176,50.4049273 86.05344,50.7725545 86.05344,51.1560818 C86.05344,52.2589636 86.05344,53.7713909 86.05344,54.8742727 C86.05344,55.2578 85.90176,55.6254273 85.63152,55.8966909 C85.36128,56.1674727 84.99504,56.3197273 84.61344,56.3197273 C81.85104,56.3197273 75.8592,56.3197273 73.332,56.3197273 Z M89.16528,34.2524545 C89.30064,34.1170636 89.37696,33.9325273 89.37696,33.7407636 L89.37696,20.6483182 C89.37696,20.299 89.62608,19.9997909 89.9688,19.9376364 C91.70016,19.6056636 93.372,18.8887182 94.84704,17.7882455 C95.06256,17.6229818 95.35248,17.5945545 95.59536,17.7150091 C95.83824,17.8354636 95.99232,18.0840818 95.99232,18.3563091 C96,23.4910455 96,39.9374273 96,44.9218364 C96,45.3053636 95.84832,45.6729909 95.57808,45.9437727 C95.30832,46.2150364 94.94208,46.3672909 94.56,46.3672909 C93.4512,46.3672909 91.92576,46.3672909 90.81696,46.3672909 C90.43488,46.3672909 90.06864,46.2150364 89.79888,45.9437727 C89.52864,45.6729909 89.37696,45.3053636 89.37696,44.9218364 C89.37696,43.4619273 89.37696,41.2344818 89.37696,39.8853909 C89.37696,39.6907364 89.26032,39.5153545 89.0808,39.4406727 C88.90176,39.3659909 88.69536,39.4069455 88.55808,39.5442636 C87.80304,40.2997545 86.73264,41.3698727 86.28336,41.8198909 C86.148,41.9552818 86.07168,42.1393364 86.07168,42.3315818 C86.07168,42.8601364 86.07168,43.9895182 86.07168,44.9189455 C86.07168,45.3019909 85.92,45.6696182 85.64976,45.9408818 C85.38,46.2116636 85.01328,46.3644 84.63168,46.3644 C83.52288,46.3644 81.99744,46.3644 80.88864,46.3644 C80.50656,46.3644 80.14032,46.2116636 79.87056,45.9408818 C79.60032,45.6696182 79.44864,45.3019909 79.44864,44.9189455 C79.44864,41.7823091 79.44864,34.3835091 79.44864,31.2473545 C79.44864,30.8638273 79.60032,30.4962 79.87056,30.2249364 C80.14032,29.9541545 80.50656,29.8019 80.88864,29.8019 C81.99744,29.8019 83.52288,29.8019 84.63168,29.8019 C85.01328,29.8019 85.38,29.9541545 85.64976,30.2249364 C85.92,30.4962 86.07168,30.8638273 86.07168,31.2473545 C86.07168,32.6836545 86.07168,34.8590636 86.07168,36.1864727 C86.07168,36.3811273 86.18832,36.5569909 86.36736,36.6316727 C86.54688,36.7063545 86.7528,36.6654 86.89056,36.5280818 C87.6456,35.7725909 88.71552,34.7019909 89.16528,34.2524545 Z M70.93344,36.5507273 C70.55136,36.5507273 70.18512,36.3984727 69.91488,36.1272091 C69.64512,35.8559455 69.49344,35.4883182 69.49344,35.1052727 C69.49344,31.9686364 69.49344,24.5688727 69.49344,21.4322364 C69.49344,21.0491909 69.64512,20.6810818 69.91488,20.4103 C70.18512,20.1390364 70.55136,19.9867818 70.93344,19.9867818 C72.04176,19.9867818 73.56768,19.9867818 74.67648,19.9867818 C75.05808,19.9867818 75.42432,20.1390364 75.69456,20.4103 C75.96432,20.6810818 76.11648,21.0491909 76.11648,21.4322364 C76.11648,24.5688727 76.11648,31.9686364 76.11648,35.1052727 C76.11648,35.4883182 75.96432,35.8559455 75.69456,36.1272091 C75.42432,36.3984727 75.05808,36.5507273 74.67648,36.5507273 C73.56768,36.5507273 72.04176,36.5507273 70.93344,36.5507273 Z M79.464,9.24368182 C79.3776,6.66065455 79.96368,4.28191818 81.8256,2.41969091 C85.0512,-0.806563636 90.288,-0.806563636 93.5136,2.41969091 C96.7392,5.64594545 96.7392,10.8847545 93.5136,14.1114909 C91.86912,15.7559364 89.70192,16.5625 87.54528,16.5302182 C87.16224,16.5254 86.7936,16.6747636 86.52096,16.9445818 C86.24832,17.2148818 86.0952,17.5834727 86.0952,17.9674818 C86.08704,19.9376364 86.08704,23.2679636 86.08704,25.1697 C86.08704,25.5527455 85.93536,25.9203727 85.6656,26.1916364 C85.39536,26.4624182 85.02912,26.6151545 84.64704,26.6151545 C83.53824,26.6151545 82.0128,26.6151545 80.904,26.6151545 C80.5224,26.6151545 80.15616,26.4624182 79.88592,26.1916364 C79.61568,25.9203727 79.464,25.5527455 79.464,25.1697 L79.464,9.24368182 Z M72.80352,16.5673182 C70.98144,16.5673182 69.504,15.0842818 69.504,13.2553 C69.504,13.2548182 69.504,13.2543364 69.504,13.2543364 C69.504,11.4248727 70.98144,9.94231818 72.80352,9.94231818 C72.81168,9.94231818 72.82032,9.94231818 72.82848,9.94231818 C74.65056,9.94231818 76.128,11.4248727 76.128,13.2543364 C76.128,13.2543364 76.128,13.2548182 76.128,13.2553 C76.128,15.0842818 74.65056,16.5673182 72.82848,16.5673182 C72.82032,16.5673182 72.81168,16.5673182 72.80352,16.5673182 Z M85.80336,10.4766545 C86.93952,11.4378818 88.644,11.3829545 89.71488,10.3113909 C90.84384,9.18249091 90.84384,7.34869091 89.71488,6.21930909 C88.58592,5.09040909 86.75328,5.09040909 85.62432,6.21930909 C84.5448,7.29906364 84.49728,9.02252727 85.48176,10.1581727 C85.54128,10.2044273 85.59456,10.2506818 85.64112,10.2974182 C85.69248,10.3489727 85.7472,10.4120909 85.80336,10.4766545 Z" id="Fill-1"></path>
        </g>
    </g>
</svg>