<?xml version="1.0" encoding="UTF-8"?>
<svg width="818px" height="471px" viewBox="0 0 818 471" version="1.1" xmlns="http://www.w3.org/2000/svg" xmlns:xlink="http://www.w3.org/1999/xlink">
    <title>zhorna-dark</title>
    <defs>
        <path d="M408.5,0 C454.2,0 498.1,3.2 539.2,9.2 C570.7,13.8 613.4,24 667.4,39.9 L667.4,39.9 L780.5,104.7 C782.7,106 784.6,107.7 786.1,109.8 C806.7,138.3 817,160.5 817,176.5 C817,187.2 814.8,197.7 810.6,207.8 C802.1,228.3 773.6,253.4 725.3,283.1 C683.1,305.1 649.9,319.5 625.6,326.1 C562.7,343.2 488.3,353.1 408.5,353.1 C393.2,353.1 378.2,352.7 363.3,352 C302.8,349.1 224.3,333.4 127.9,304.8 C58.6,266.3 18.4,234.8 7.4,210.2 C2.5,199.3 0,188 0,176.5 C0,142.3 22.5,110.3 61.5,83.3 C90.3,63.3 250.9,12.4 295.4,6.9 C331.4,2.4 369.3,0 408.5,0 Z M408.5,131.9 C351.8,131.9 305.8,151.9 305.8,176.5 C305.8,201.1 351.8,221.1 408.5,221.1 C465.2,221.1 511.2,201.1 511.2,176.5 C511.2,151.9 465.2,131.9 408.5,131.9 Z" id="path-1"></path>
    </defs>
    <g id="Production" stroke="none" stroke-width="1" fill="none" fill-rule="evenodd">
        <g id="zhorna-dark">
            <path d="M408.5,117 C454.2,117 498.1,120.2 539.2,126.2 C570.3,130.7 612.5,140.8 665.8,156.5 L667.4,157 L704.4,178.2 L817.1,178.2 L817.1,292.9 C817.1,293.1 817.1,293.4 817.1,293.6 C817.1,304.3 814.9,314.8 810.7,324.9 C802.2,345.4 773.7,370.5 725.4,400.2 C683.2,422.2 650,436.6 625.7,443.2 C562.8,460.3 488.4,470.2 408.6,470.2 C393.3,470.2 378.3,469.8 363.4,469.1 C302.9,466.2 224.4,450.5 128,421.9 C58.7,383.4 18.5,351.9 7.5,327.3 C2.5,316.3 0,305 0,293.5 L0,292.8 L0,292.8 L0,178.1 L110.6,178.1 C170.5,155.5 263.2,127.8 295.5,123.8 C331.4,119.4 369.3,117 408.5,117 Z M494.5,292.8 L322.5,292.8 C322.5,293 322.5,293.3 322.5,293.5 C322.5,314 361,330.7 408.5,330.7 C456,330.7 494.5,314.1 494.5,293.5 C494.5,293.3 494.5,293 494.5,292.8 Z" id="Combined-Shape" fill="#919EAB"></path>
            <rect id="Rectangle" fill="#003135" x="296" y="124" width="226" height="147"></rect>
            <g id="Combined-Shape-3">
                <mask id="mask-2" fill="white">
                    <use xlink:href="#path-1"></use>
                </mask>
                <use id="Mask" fill="#62765D" xlink:href="#path-1"></use>
                <path d="M-82.1,806 L210.4,1079.6 L596.2,1243.6 L684.7,1231.8 L684.7,1231.8 L596.2,1243.7 L210.5,1079.7 L-82.1,806 L-82.1,806 Z M808.8,624.1 L812.8,833.3 L808.8,624.1 C808.8,624.1 808.8,624.1 808.8,624.1 Z M-330.3,-90.9 L-151.3,-188 L-0.6,-261.7 C5.68434189e-14,-262 0.8,-261.7 1.1,-261.1 C1.2,-260.9 1.2,-260.8 1.2,-260.6 C7.8,-167.6 61.5,-56.7 162.3,72.3 C208.3,131.2 295,185.7 424.6,179.7 C587.9,172.2 638.2,254.6 684.7,302.1 C724,342.3 765.4,449.6 808.8,624 L808.5,623.3 L-142.2,486.4 C-141.3,482.3 -140.3,478.3 -139.2,474.4 L-84.5,381.1 C-50.7,339.3 -44.8,289 -66.8,230.2 C-130.4,59.9 -218.2,-46.4 -330.1,-88.5 C-330.8,-88.8 -331.1,-89.5 -330.9,-90.2 C-330.8,-90.5 -330.6,-90.7 -330.3,-90.9 Z" id="Combined-Shape_1_" fill="#405352" mask="url(#mask-2)"></path>
            </g>
        </g>
    </g>
</svg>